<svg width="436" height="201" viewBox="0 0 436 201" fill='#c20f24' xmlns="http://www.w3.org/2000/svg">
<path d="M85.9443 1.19998C75.6443 2.49998 58.7443 8.19998 49.7443 13.5C17.0443 32.7 -1.85567 67 0.144328 104C2.24433 145.6 26.6443 179 65.6443 193.7C77.1443 198 84.2443 199.1 106.544 199.7L127.744 200.3V100.1V-1.51917e-05L110.544 0.0999848C101.044 0.199985 89.9443 0.699985 85.9443 1.19998ZM98.7443 100V170H95.0443C83.3443 169.9 66.0443 163.1 55.1443 154.1C43.6443 144.8 34.2443 129.4 31.2443 115.5C24.5443 83.6 39.4443 52 68.0443 37.6C76.1443 33.6 88.0443 30.1 94.5443 30.1L98.7443 30V100Z" />
<path d="M132.744 100V200H146.744H160.744V121C160.744 77.5 161.044 42 161.544 42C161.944 42 169.844 49.5 179.044 58.8L195.744 75.5V137.8V200H210.244H224.744V137.7V75.5L242.244 58L259.744 40.5V120.3V200H273.744H287.744V100V-1.8239e-05H273.444H259.244L234.744 24.5L210.244 49L185.744 24.5L161.244 -1.8239e-05H146.944H132.744V100Z" />
<path d="M292.744 14.5V29H304.744H316.744V114.5V200H331.244H345.744V114.5V29H357.244H368.744V14.5V-1.8239e-05H330.744H292.744V14.5Z" />
<circle cx="210" cy="14" r="14" />
<path d="M373.744 14V29L379 29.5C389.3 31.6 391 31.9 397 38C404.5 45.4 406.244 51.9 406.144 62.5C406.144 71.7 402.644 79 395.344 85.7C387.744 92.7 383.044 94.1 365.544 94.7L350.744 95.3L350.744 120.8L402.644 200H436L381.5 118.9C393.5 115.9 406.244 111.6 414.844 103.1C427.144 90.9 432.744 77.4 432.744 60.3C432.744 49.7 430.944 42 426.244 32.3C421.744 23.2 411.744 12.7 402.644 7.69998C395.844 3.89998 382.944 -1.52588e-05 377.044 -1.52588e-05H373.744V14Z"/>
</svg>
