
<svg viewBox="0 0 436 201" fill="none" xmlns="http://www.w3.org/2000/svg">
	
<g id='logo' fill='currentColor'>
	<path d="M85.9443 1.19998C75.6443 2.49998 58.7443 8.19998 49.7443 13.5C17.0443 32.7 -1.85567 67 0.144328 104C2.24433 145.6 26.6443 179 65.6443 193.7C77.1443 198 84.2443 199.1 106.544 199.7L127.744 200.3V100.1V-1.51917e-05L110.544 0.0999848C101.044 0.199985 89.9443 0.699985 85.9443 1.19998ZM98.7443 100V170H95.0443C83.3443 169.9 66.0443 163.1 55.1443 154.1C43.6443 144.8 34.2443 129.4 31.2443 115.5C24.5443 83.6 39.4443 52 68.0443 37.6C76.1443 33.6 88.0443 30.1 94.5443 30.1L98.7443 30V100Z" />
	<path d="M132.744 100V200H146.744H160.744V121C160.744 77.5 161.044 42 161.544 42C161.944 42 169.844 49.5 179.044 58.8L195.744 75.5V137.8V200H210.244H224.744V137.7V75.5L242.244 58L259.744 40.5V120.3V200H273.744H287.744V100V-1.8239e-05H273.444H259.244L234.744 24.5L210.244 49L185.744 24.5L161.244 -1.8239e-05H146.944H132.744V100Z" />
	<path d="M292.744 14.5V29H304.744H316.744V114.5V200H331.244H345.744V114.5V29H357.244H368.744V14.5V-1.8239e-05H330.744H292.744V14.5Z" />
	<circle cx="210" cy="14" r="14" />
	<path d="M373.744 14V29L379 29.5C389.3 31.6 391 31.9 397 38C404.5 45.4 406.244 51.9 406.144 62.5C406.144 71.7 402.644 79 395.344 85.7C387.744 92.7 383.044 94.1 365.544 94.7L350.744 95.3L350.744 120.8L402.644 200H436L381.5 118.9C393.5 115.9 406.244 111.6 414.844 103.1C427.144 90.9 432.744 77.4 432.744 60.3C432.744 49.7 430.944 42 426.244 32.3C421.744 23.2 411.744 12.7 402.644 7.69998C395.844 3.89998 382.944 -1.52588e-05 377.044 -1.52588e-05H373.744V14Z" />
</g>

<g id="linkedin">
	<path d="M2.5 18h3V6.9h-3V18zM4 2c-1 0-1.8.8-1.8 1.8S3 5.6 4 5.6s1.8-.8 1.8-1.8S5 2 4 2zm6.6 6.6V6.9h-3V18h3v-5.7c0-3.2 4.1-3.4 4.1 0V18h3v-6.8c0-5.4-5.7-5.2-7.1-2.6z"/>
</g>

<g id='git' >
	<path d="M20.9992 5.95846C21.0087 6.565 20.9333 7.32649 20.8658 7.8807C20.8395 8.09686 20.8037 8.27676 20.7653 8.42453C21.6227 10.01 22 11.9174 22 14C22 16.4684 20.8127 18.501 18.9638 19.8871C17.1319 21.2605 14.6606 22 12 22C9.33939 22 6.86809 21.2605 5.0362 19.8871C3.18727 18.501 2 16.4684 2 14C2 11.9174 2.37732 10.01 3.23472 8.42452C3.19631 8.27676 3.16055 8.09685 3.13422 7.8807C3.06673 7.32649 2.99133 6.565 3.00081 5.95846C3.01149 5.27506 3.10082 4.5917 3.19988 3.91379C3.24569 3.60028 3.31843 3.30547 3.65883 3.11917C4.00655 2.92886 4.37274 2.99981 4.73398 3.1021C5.95247 3.44713 7.09487 3.93108 8.16803 4.51287C9.2995 4.17287 10.5783 4 12 4C13.4217 4 14.7005 4.17287 15.832 4.51287C16.9051 3.93108 18.0475 3.44713 19.266 3.1021C19.6273 2.99981 19.9935 2.92886 20.3412 3.11917C20.6816 3.30547 20.7543 3.60028 20.8001 3.91379C20.8992 4.5917 20.9885 5.27506 20.9992 5.95846ZM20 14C20 12.3128 19.6122 10 17.5 10C16.5478 10 15.6474 10.2502 14.7474 10.5004C13.8482 10.7502 12.9495 11 12 11C11.0505 11 10.1518 10.7502 9.25263 10.5004C8.35261 10.2502 7.45216 10 6.5 10C4.39379 10 4 12.3197 4 14C4 15.7636 4.82745 17.231 6.23588 18.2869C7.66135 19.3556 9.69005 20 12 20C14.3099 20 16.3386 19.3555 17.7641 18.2869C19.1726 17.231 20 15.7636 20 14ZM10 14.5C10 15.8807 9.32843 17 8.5 17C7.67157 17 7 15.8807 7 14.5C7 13.1193 7.67157 12 8.5 12C9.32843 12 10 13.1193 10 14.5ZM15.5 17C16.3284 17 17 15.8807 17 14.5C17 13.1193 16.3284 12 15.5 12C14.6716 12 14 13.1193 14 14.5C14 15.8807 14.6716 17 15.5 17Z"/>
</g>

<g id="telegram">
	<path d="M41.4193 7.30899C41.4193 7.30899 45.3046 5.79399 44.9808 9.47328C44.8729 10.9883 43.9016 16.2908 43.1461 22.0262L40.5559 39.0159C40.5559 39.0159 40.3401 41.5048 38.3974 41.9377C36.4547 42.3705 33.5408 40.4227 33.0011 39.9898C32.5694 39.6652 24.9068 34.7955 22.2086 32.4148C21.4531 31.7655 20.5897 30.4669 22.3165 28.9519L33.6487 18.1305C34.9438 16.8319 36.2389 13.8019 30.8426 17.4812L15.7331 27.7616C15.7331 27.7616 14.0063 28.8437 10.7686 27.8698L3.75342 25.7055C3.75342 25.7055 1.16321 24.0823 5.58815 22.459C16.3807 17.3729 29.6555 12.1786 41.4193 7.30899Z"/>
</g>

<g id="css" fill='currentColor'>
	<path display="inline" d="M483.111,0.501l-42.59,461.314l-184.524,49.684L71.47,461.815L28.889,0.501H483.111z M397.29,94.302
			H255.831H111.866l6.885,55.708h137.08h7.7l-7.7,3.205l-132.07,55.006l4.38,54.453l127.69,0.414l68.438,0.217l-4.381,72.606
			l-64.058,18.035v-0.057l-0.525,0.146l-61.864-15.617l-3.754-45.07h-0.205H132.1h-0.202l7.511,87.007l116.423,34.429v-0.062
			l0.21,0.062l115.799-33.802l15.021-172.761h-131.03h-0.323l0.323-0.14l135.83-58.071L397.29,94.302z">
	</path>
</g>

<g id='styled' fill='currentColor'>
	<path d="M18.05,29.6c.042-.095.148-.161.225-.241,1.175-1.232,2.36-2.453,3.519-3.7A3.2,3.2,0,0,0,22.808,23a5.925,5.925,0,0,0-.143-.624c-.316.3-.61.573-.906.848-.46.428-.918.858-1.382,1.281a1.931,1.931,0,0,1-2.148.419,1.973,1.973,0,0,1-1.29-1.75,1.04,1.04,0,0,0-.043-.146c-.353.3-.691.576-1.026.86l-6.963,5.9c-.048.041-.1.092-.145.132h9.283l-.014-.009C17.981,29.876,18.007,29.692,18.05,29.6Z" />
	<path d="M8.337,29.6a1.239,1.239,0,0,1,.295-.276l9.636-8.175q.986-.837,1.963-1.683a.523.523,0,0,0,.182-.224,5.364,5.364,0,0,0,.065-2.069c-.1.07-.154.1-.2.149-.789.706-1.574,1.418-2.367,2.12a1.762,1.762,0,0,1-2.048.329,1.889,1.889,0,0,1-1.08-1.807c0-.085,0-.169,0-.324-.145.106-.251.177-.35.257Q8.648,22.529,2.865,27.154c-.174.139-.382.449-.61.148s.119-.425.294-.565q6.165-4.947,12.336-9.885c.67-.537.714-.762.278-1.615l-.26.244c-.713.663-1.434,1.317-2.136,1.991a2.121,2.121,0,0,1-3.585-1.337c-.133.1-.248.173-.357.258l-6.1,4.728a1.485,1.485,0,0,1-.356.258.446.446,0,0,1-.3-.015v8.561H8.325A.365.365,0,0,1,8.337,29.6Z" />
	<path d="M25.237,2.423c-.17.557-.335,1.115-.484,1.678a1.688,1.688,0,0,0,.9,2.09,7.122,7.122,0,0,0,3.818.8V2.518a.73.73,0,0,1,.016-.294.666.666,0,0,1,.105-.149H25.233C25.3,2.153,25.277,2.29,25.237,2.423Z" />
	<path d="M16.482,12.032a2.422,2.422,0,0,1-.5,1.376A22.671,22.671,0,0,1,12.256,17.2a1.442,1.442,0,0,1-1.684.2,1.393,1.393,0,0,1-.843-1.368,1.624,1.624,0,0,1,.417-.947,35.848,35.848,0,0,1,5.019-3.993.71.71,0,0,1,.829-.034A1.041,1.041,0,0,1,16.482,12.032Z" />
	<path d="M15.284,18.093a1.437,1.437,0,0,1,.448-1.2,38.336,38.336,0,0,1,4.87-3.813c.052-.033.1-.066.157-.1a.837.837,0,0,1,1.025.035.861.861,0,0,1,.242.979,4.39,4.39,0,0,1-1.168,1.908c-1.105,1.1-2.252,2.164-3.4,3.22a1.124,1.124,0,0,1-1.364.192A1.512,1.512,0,0,1,15.284,18.093Z" />
	<path d="M22.5,18.754c-.28.3-.568.586-.837.893a1.89,1.89,0,0,0-.2.38c.148.044.321.16.441.119.611-.205,1.207-.451,1.878-.71-.146.336-.256.646-.411.93A12.189,12.189,0,0,1,21,23.238q-.532.513-1.105.981a1.484,1.484,0,0,1-2.415-.92,1.1,1.1,0,0,1,.238-.813,22.187,22.187,0,0,1,4.623-3.823.193.193,0,0,1,.065-.013Z" />
	<path d="M24.794,14.771l1.711-7.6,1.2.281-.619,1.881c-.578,1.75-1.163,3.5-1.727,5.252C25.249,14.909,25.105,14.969,24.794,14.771Z" />
	<path d="M22.862,19.241c.181-.691.361-1.33.513-1.976a4.468,4.468,0,0,1,.826-1.721c.243-.319.516-.192.795-.123.258.063.323.252.334.5a2.845,2.845,0,0,1-.588,1.907A4.8,4.8,0,0,1,22.862,19.241Z" />
	<path d="M29.993,2.894a3.623,3.623,0,0,0-.017-.668.291.291,0,0,0-.116-.151A.381.381,0,0,0,29.708,2c-.032-.006-.077.027-.12.074a.666.666,0,0,0-.105.149.73.73,0,0,0-.016.294V6.989a7.122,7.122,0,0,1-3.818-.8,1.688,1.688,0,0,1-.9-2.09c.149-.563.314-1.121.484-1.678.04-.133.063-.27,0-.348a.2.2,0,0,0-.135-.064.3.3,0,0,0-.182.064.434.434,0,0,0-.171.19c-.2.6-.376,1.206-.529,1.818a2.148,2.148,0,0,0-.046.737,2.339,2.339,0,0,0,1.542,2c.189.079.3.157.247.406-.073.316-.144.632-.216.949q-.735,3.222-1.462,6.447a.483.483,0,0,1-.121.257,3.228,3.228,0,0,0-.791.92,4.8,4.8,0,0,0-.53,1.5.981.981,0,0,1-.558.785c-.417.211-.8.484-1.263.768A12.639,12.639,0,0,0,21,17.179a1.062,1.062,0,0,1,.284-.96,4.75,4.75,0,0,0,1.258-2.194,1.294,1.294,0,0,0-1.208-1.7,1.7,1.7,0,0,0-.929.264c-.957.646-1.888,1.332-2.812,2.026-.547.412-1.062.868-1.592,1.3a.418.418,0,0,1-.059-.081.842.842,0,0,0-.059-.214c-.443-.684-.136-1.181.345-1.692A2.793,2.793,0,0,0,17,11.977a1.568,1.568,0,0,0-.327-1.026,1.459,1.459,0,0,0-.438-.363,1.337,1.337,0,0,0-1.517.162l-.279.2c-.637.456-1.282.9-1.895,1.388-.895.712-1.769,1.454-2.626,2.214-.4.353-.692.835-1.107,1.163-2.164,1.709-4.351,3.387-6.53,5.076a1.022,1.022,0,0,0-.205.161.164.164,0,0,0-.016.029c-.046.107-.085.284-.031.349a.141.141,0,0,0,.047.033.446.446,0,0,0,.3.015,1.485,1.485,0,0,0,.356-.258l6.1-4.728c.109-.085.224-.162.357-.258a2.121,2.121,0,0,0,3.585,1.337c.7-.674,1.423-1.328,2.136-1.991l.26-.244c.436.853.392,1.078-.278,1.615Q8.716,21.793,2.549,26.737c-.175.14-.521.267-.294.565s.436-.009.61-.148Q8.651,22.533,14.429,17.9c.1-.08.205-.151.35-.257,0,.155,0,.239,0,.324a1.889,1.889,0,0,0,1.08,1.807,1.762,1.762,0,0,0,2.048-.329c.793-.7,1.578-1.414,2.367-2.12.05-.045.108-.079.2-.149a5.364,5.364,0,0,1-.065,2.069.523.523,0,0,1-.182.224q-.978.845-1.963,1.683L8.632,29.328a1.239,1.239,0,0,0-.295.276.365.365,0,0,0-.012.321v0a.376.376,0,0,0,.32.063.294.294,0,0,0,.116-.065c.05-.04.1-.091.145-.132l6.963-5.9c.335-.284.673-.564,1.026-.86a1.04,1.04,0,0,1,.043.146,1.973,1.973,0,0,0,1.29,1.75,1.931,1.931,0,0,0,2.148-.419c.464-.423.922-.853,1.382-1.281.3-.275.59-.551.906-.848a5.925,5.925,0,0,1,.143.624,3.2,3.2,0,0,1-1.014,2.649c-1.159,1.248-2.344,2.469-3.519,3.7-.077.08-.183.146-.225.241s-.069.281-.019.321l.014.009a.573.573,0,0,0,.338.051.136.136,0,0,0,.081-.051c.028-.029.055-.065.082-.092.952-.984,1.909-1.963,2.854-2.954a13.982,13.982,0,0,0,1.074-1.223,3.411,3.411,0,0,0,.61-3.616.516.516,0,0,1,.074-.386c.065-.112.137-.221.211-.329a4.632,4.632,0,0,0,.587-1,7.547,7.547,0,0,1,1.339-2.4,2.792,2.792,0,0,0,.5-2.469.988.988,0,0,1,0-.489c.506-1.567,1.027-3.129,1.543-4.692q.347-1.05.69-2.094l.213-.647c.454,0,.882-.009,1.308,0,.354.01.462-.156.458-.5C29.985,5.652,29.993,4.273,29.993,2.894ZM12.256,17.2a1.442,1.442,0,0,1-1.684.2,1.393,1.393,0,0,1-.843-1.368,1.624,1.624,0,0,1,.417-.947,35.848,35.848,0,0,1,5.019-3.993.852.852,0,0,1,.326-.14.656.656,0,0,1,.238,0,.763.763,0,0,1,.265.106,1.041,1.041,0,0,1,.488.975,2.422,2.422,0,0,1-.5,1.376A22.671,22.671,0,0,1,12.256,17.2Zm5.2,1.929a1.124,1.124,0,0,1-1.364.192,1.512,1.512,0,0,1-.81-1.224,1.437,1.437,0,0,1,.448-1.2,38.336,38.336,0,0,1,4.87-3.813c.052-.033.1-.066.157-.1a.837.837,0,0,1,1.025.035.861.861,0,0,1,.242.979,4.39,4.39,0,0,1-1.168,1.908C19.753,17.008,18.606,18.069,17.458,19.125Zm5.911,1.241A12.189,12.189,0,0,1,21,23.238q-.532.513-1.105.981a1.484,1.484,0,0,1-2.415-.92,1.1,1.1,0,0,1,.238-.813,22.187,22.187,0,0,1,4.623-3.823.193.193,0,0,1,.065-.013l.1.1c-.28.3-.568.586-.837.893a1.89,1.89,0,0,0-.2.38c.148.044.321.16.441.119.483-.162.958-.35,1.467-.55l.411-.16C23.634,19.772,23.524,20.082,23.369,20.366Zm1.373-2.535a4.363,4.363,0,0,1-1.373,1.152q-.247.138-.507.258c.178-.681.356-1.312.507-1.95l.006-.026a4.468,4.468,0,0,1,.826-1.721c.243-.319.516-.192.795-.123.258.063.323.252.334.5A2.845,2.845,0,0,1,24.742,17.831Zm2.34-8.5c-.578,1.75-1.163,3.5-1.727,5.252-.106.329-.25.389-.561.191l1.483-6.593.228-1.012,1.2.281c-.082.247-.161.49-.241.731Z" fill='none'/>
</g>

<g id='gitSkill' fill='currentColor'>
	<path d="M30.428 14.663l-13.095-13.094c-0.35-0.349-0.833-0.565-1.367-0.565s-1.017 0.216-1.367 0.565l0-0-2.713 2.718 3.449 3.449c0.22-0.077 0.473-0.121 0.737-0.121 1.269 0 2.297 1.028 2.297 2.297 0 0.269-0.046 0.526-0.131 0.766l0.005-0.016 3.322 3.324c0.222-0.079 0.479-0.125 0.746-0.125 1.268 0 2.296 1.028 2.296 2.296s-1.028 2.296-2.296 2.296c-1.268 0-2.296-1.028-2.296-2.296 0-0.313 0.063-0.611 0.176-0.883l-0.006 0.015-3.11-3.094v8.154c0.764 0.385 1.279 1.163 1.279 2.061 0 1.27-1.030 2.3-2.3 2.3s-2.3-1.030-2.3-2.3c0-0.634 0.256-1.207 0.671-1.623l-0 0c0.211-0.211 0.462-0.382 0.741-0.502l0.015-0.006v-8.234c-0.842-0.354-1.422-1.173-1.422-2.126 0-0.32 0.065-0.624 0.183-0.901l-0.006 0.015-3.389-3.405-8.98 8.974c-0.348 0.351-0.562 0.834-0.562 1.368s0.215 1.017 0.563 1.368l13.096 13.092c0.349 0.35 0.832 0.566 1.366 0.566s1.016-0.216 1.366-0.566l13.034-13.034c0.35-0.349 0.567-0.833 0.567-1.366s-0.217-1.017-0.567-1.366l-0-0z"></path>
</g>

<g id='react' fill='currentColor'>
	<rect width="24" height="24" fill="none"/>
	<path d="M12,10.11A1.87,1.87,0,1,1,10.13,12,1.88,1.88,0,0,1,12,10.11M7.37,20c.63.38,2-.2,3.6-1.7a24.22,24.22,0,0,1-1.51-1.9A22.7,22.7,0,0,1,7.06,16c-.51,2.14-.32,3.61.31,4m.71-5.74-.29-.51a7.91,7.91,0,0,0-.29.86c.27.06.57.11.88.16l-.3-.51m6.54-.76.81-1.5-.81-1.5c-.3-.53-.62-1-.91-1.47C13.17,9,12.6,9,12,9s-1.17,0-1.71,0c-.29.47-.61.94-.91,1.47L8.57,12l.81,1.5c.3.53.62,1,.91,1.47.54,0,1.11,0,1.71,0s1.17,0,1.71,0c.29-.47.61-.94.91-1.47M12,6.78c-.19.22-.39.45-.59.72h1.18c-.2-.27-.4-.5-.59-.72m0,10.44c.19-.22.39-.45.59-.72H11.41c.2.27.4.5.59.72M16.62,4c-.62-.38-2,.2-3.59,1.7a24.22,24.22,0,0,1,1.51,1.9,22.7,22.7,0,0,1,2.4.36c.51-2.14.32-3.61-.32-4m-.7,5.74.29.51a7.91,7.91,0,0,0,.29-.86c-.27-.06-.57-.11-.88-.16l.3.51m1.45-7c1.47.84,1.63,3.05,1,5.63,2.54.75,4.37,2,4.37,3.68s-1.83,2.93-4.37,3.68c.62,2.58.46,4.79-1,5.63s-3.45-.12-5.37-1.95c-1.92,1.83-3.91,2.79-5.38,1.95s-1.62-3-1-5.63c-2.54-.75-4.37-2-4.37-3.68S3.08,9.07,5.62,8.32c-.62-2.58-.46-4.79,1-5.63s3.46.12,5.38,1.95c1.92-1.83,3.91-2.79,5.37-1.95M17.08,12A22.51,22.51,0,0,1,18,14.26c2.1-.63,3.28-1.53,3.28-2.26S20.07,10.37,18,9.74A22.51,22.51,0,0,1,17.08,12M6.92,12A22.51,22.51,0,0,1,6,9.74c-2.1.63-3.28,1.53-3.28,2.26S3.93,13.63,6,14.26A22.51,22.51,0,0,1,6.92,12m9,2.26-.3.51c.31,0,.61-.1.88-.16a7.91,7.91,0,0,0-.29-.86l-.29.51M13,18.3c1.59,1.5,3,2.08,3.59,1.7s.83-1.82.32-4a22.7,22.7,0,0,1-2.4.36A24.22,24.22,0,0,1,13,18.3M8.08,9.74l.3-.51c-.31,0-.61.1-.88.16a7.91,7.91,0,0,0,.29.86l.29-.51M11,5.7C9.38,4.2,8,3.62,7.37,4s-.82,1.82-.31,4a22.7,22.7,0,0,1,2.4-.36A24.22,24.22,0,0,1,11,5.7Z"/>
</g>

<g id='sass' fill='currentColor'>
	<path d="m27.533 13.796c.039-.001.085-.002.132-.002.834 0 1.623.194 2.323.54l-.031-.014c.638.311 1.162.771 1.541 1.335l.009.014c.299.436.477.975.477 1.555 0 .042-.001.084-.003.125v-.006c-.031.579-.294 1.09-.698 1.448l-.002.002c-.221.217-.488.387-.785.495l-.015.005q-.25.05-.275-.075t.225-.275c.452-.274.779-.716.898-1.237l.003-.013c.003-.042.005-.091.005-.141 0-.311-.074-.605-.205-.865l.005.011c-.217-.453-.541-.825-.94-1.094l-.01-.006c-.597-.384-1.313-.636-2.083-.699l-.016-.001c-.262-.039-.564-.061-.872-.061-.801 0-1.566.151-2.27.426l.042-.015c.145.339.236.732.249 1.144v.005c-.016.845-.47 1.58-1.145 1.99l-.011.006c-.31.22-.664.413-1.041.563l-.035.012c-.229.112-.498.177-.782.177-.033 0-.065-.001-.097-.003h.005q-.949-.199-.45-1.65c.145-.421.348-.786.605-1.107l-.006.007c.329-.43.69-.807 1.089-1.141l.011-.009-.098-.146c-.183-.312-.351-.675-.486-1.054l-.014-.046q-.15-.5-.25-.949l-.05-.35-.5.949q-.65 1.2-1.25 2.099l-.15.25c.168.408.292.881.348 1.375l.002.025c.004.047.006.103.006.159 0 .758-.374 1.428-.948 1.837l-.007.005c-.274.169-.601.344-.94.5l-.06.025c-.353.153-.762.253-1.191.275h-.009c-.033.002-.072.004-.111.004-.25 0-.487-.057-.699-.158l.01.004c-.127-.109-.207-.269-.207-.448 0-.091.021-.178.058-.255l-.002.004c.4-.561.794-1.049 1.213-1.515l-.013.015 1.1-1.399-.199-.45c-.16-.294-.313-.641-.436-1.001l-.014-.048q-.15-.5-.25-.949l-.05-.35-.5 1.2q-.599 1.399-1.1 2.399-.747 1.5-1.25 2.3l-.1.15q-.599.949-1.15.949t-.747-.7c-.096-.344-.152-.739-.152-1.147 0-.036 0-.072.001-.108v.005l.1-.7v.05q-.4.949-.8 1.749c-.177.346-.359.641-.563.919l.013-.019c-.206.216-.496.35-.817.35-.003 0-.005 0-.008 0-.021.002-.045.002-.069.002-.253 0-.483-.096-.657-.253l.001.001c-.349-.358-.608-.805-.742-1.304l-.005-.021c-.164-.455-.258-.981-.258-1.529 0-.071.002-.141.005-.21v.01c.079-.796.238-1.525.471-2.22l-.021.071-1.799 1.05v.05c.261.542.414 1.178.414 1.85 0 .123-.005.245-.015.365l.001-.016c-.053 1.03-.382 1.973-.913 2.77l.013-.02c-.557.884-1.36 1.567-2.314 1.962l-.033.012c-.537.241-1.165.382-1.825.382-.418 0-.824-.056-1.208-.162l.032.007c-.318-.107-.578-.319-.743-.593l-.003-.006c-.233-.338-.38-.751-.403-1.196v-.006c-.011-.101-.017-.218-.017-.337 0-.513.117-.999.326-1.432l-.009.02c.574-.979 1.368-1.772 2.316-2.33l.03-.016c.671-.465 1.442-.916 2.247-1.309l.106-.047.25-.15q-.45-.35-1.65-1.2c-1.069-.716-1.998-1.439-2.874-2.221l.025.022c-.847-.729-1.464-1.703-1.741-2.812l-.008-.038c-.026-.154-.041-.331-.041-.511 0-.564.145-1.094.399-1.555l-.008.017c.56-1.204 1.336-2.219 2.288-3.035l.012-.01c1.03-.973 2.196-1.82 3.462-2.506l.087-.043c1.131-.653 2.452-1.26 3.829-1.747l.17-.052c1.279-.468 2.756-.742 4.296-.747h.002c.07-.002.153-.004.236-.004 1.241 0 2.415.287 3.459.798l-.046-.021c.9.41 1.574 1.182 1.844 2.126l.006.024c.083.322.13.692.13 1.073 0 .632-.131 1.234-.366 1.78l.011-.029c-.428 1.037-1.037 1.92-1.797 2.647l-.003.003c-.77.763-1.693 1.373-2.718 1.78l-.055.019c-1.074.461-2.321.751-3.63.799l-.019.001c-.192.022-.414.034-.639.034-.592 0-1.163-.085-1.703-.244l.043.011c-.483-.154-.9-.393-1.254-.703l.004.003c-.248-.202-.45-.451-.594-.734l-.006-.013q-.15-.4-.025-.475t.175-.025l.25.25c.279.259.612.463.98.593l.02.006c.506.176 1.09.278 1.697.278.195 0 .387-.01.576-.031l-.023.002c1.618-.191 3.077-.743 4.336-1.573l-.037.023c1.064-.633 1.925-1.503 2.531-2.54l.018-.034c.301-.442.481-.988.481-1.576 0-.361-.068-.707-.192-1.025l.007.019c-.374-.591-.979-1.007-1.685-1.122l-.014-.002c-.548-.135-1.178-.213-1.825-.213-.521 0-1.031.05-1.524.146l.05-.008c-1.687.304-3.195.825-4.586 1.541l.091-.043q-6.148 3.1-6.349 6.349v.049c0 .873.343 1.666.902 2.252l-.001-.001c.637.708 1.341 1.333 2.11 1.873l.039.026c.701.524 1.321 1.065 1.898 1.649l.001.002.1.1 3.2-1.749c.365-.528.804-.974 1.308-1.334l.016-.011c.4-.336.908-.555 1.465-.599l.009-.001c.02-.002.043-.002.067-.002.373 0 .693.225.831.547l.002.006c.105.235.166.51.166.799 0 .088-.006.175-.017.261l.001-.01-.097.493.15-.1c.104-.079.235-.126.377-.126.09 0 .175.019.252.053l-.004-.002c.192.05.331.222.331.426 0 .035-.004.069-.012.102l.001-.003-.15.55q-.45 1.799-.599 2.599c-.05.173-.078.372-.078.578 0 .043.001.085.004.127v-.006q.025.3.075.3t.199-.3l.15-.35q.05 0 0 .05l.55-1.15q1.95-4.298 2.099-4.8l.3-.949q.05-.1.4-.199c.237-.064.508-.101.788-.101.023 0 .046 0 .068.001h-.003q.7 0 .7.35l-.05.25c-.112.308-.223.693-.309 1.087l-.011.063c-.02.129-.032.277-.032.429 0 .202.02.399.059.59l-.003-.019.05.199c.102.417.257.783.46 1.117l-.01-.017q.599-.999 1.15-2.049c.29-.483.56-1.043.777-1.629l.023-.07c.075-.377.161-.695.266-1.005l-.016.056q.05-.15.427-.225c.238-.048.511-.075.79-.075h.036-.002q.7 0 .747.35l-.1.199c-.119.336-.223.74-.293 1.155l-.006.045c-.009.097-.015.209-.015.323 0 .239.024.473.069.699l-.004-.023v.199c.115.436.286.819.51 1.166l-.01-.016.15.35c.835-.41 1.817-.65 2.855-.65h.039-.002zm-21.439 7.253c.695-.718 1.124-1.698 1.124-2.778 0-.417-.064-.819-.182-1.197l.008.028-.8.5c-.816.465-1.522.984-2.161 1.574l.008-.007c-.485.446-.843 1.023-1.019 1.674l-.006.025q-.225.925.225 1.2c.183.084.398.133.623.133.246 0 .479-.058.684-.162l-.009.004c.594-.216 1.097-.559 1.497-.998l.003-.003zm6.697-4.604q.25-.65.55-1.55.4-1.2.275-1.399t-.475-.05c-.278.135-.511.32-.697.547l-.003.004c-.208.263-.406.557-.582.866l-.018.034c-.202.331-.373.712-.492 1.116l-.009.034c-.193.523-.305 1.128-.305 1.758 0 .085.002.169.006.253v-.012q.05.999.32 1.075t.625-.725c.229-.413.433-.893.585-1.396l.014-.054q.149-.354.204-.501zm5.546 2.65c.693-.311 1.181-.966 1.249-1.741l.001-.008v-.05l-.55.7-.999 1.1c-.015.012-.025.03-.025.05 0 .02.01.038.024.05q.048.049.3-.1zm4.299-.95c.756-.216 1.3-.901 1.3-1.712 0-.013 0-.026 0-.039v.002c-.01-.2-.046-.388-.105-.566l.004.015c-.389.346-.708.76-.939 1.227l-.011.023q-.451.899-.252 1.048z"/>
</g>

<g id='typescript' fill='currentColor'>
	<path d="M0 16v16h32v-32h-32zM25.786 14.724c0.813 0.203 1.432 0.568 2.005 1.156 0.292 0.312 0.729 0.885 0.766 1.026 0.010 0.042-1.38 0.974-2.224 1.495-0.031 0.021-0.156-0.109-0.292-0.313-0.411-0.599-0.844-0.859-1.505-0.906-0.969-0.063-1.594 0.443-1.589 1.292-0.005 0.208 0.042 0.417 0.135 0.599 0.214 0.443 0.615 0.708 1.854 1.245 2.292 0.984 3.271 1.635 3.88 2.557 0.682 1.031 0.833 2.677 0.375 3.906-0.51 1.328-1.771 2.234-3.542 2.531-0.547 0.099-1.849 0.083-2.438-0.026-1.286-0.229-2.505-0.865-3.255-1.698-0.297-0.323-0.87-1.172-0.833-1.229 0.016-0.021 0.146-0.104 0.292-0.188s0.682-0.396 1.188-0.688l0.922-0.536 0.193 0.286c0.271 0.411 0.859 0.974 1.214 1.161 1.021 0.542 2.422 0.464 3.115-0.156 0.281-0.234 0.438-0.594 0.417-0.958 0-0.37-0.047-0.536-0.24-0.813-0.25-0.354-0.755-0.656-2.198-1.281-1.651-0.714-2.365-1.151-3.010-1.854-0.406-0.464-0.708-1.010-0.88-1.599-0.12-0.453-0.151-1.589-0.057-2.042 0.339-1.599 1.547-2.708 3.281-3.036 0.563-0.109 1.875-0.068 2.427 0.068zM18.276 16.063l0.010 1.307h-4.167v11.839h-2.948v-11.839h-4.161v-1.281c0-0.714 0.016-1.307 0.036-1.323 0.016-0.021 2.547-0.031 5.62-0.026l5.594 0.016z"/>
</g>

<g id="html" fill='currentColor'>
	<path display="inline" d="M30.713,0.501L71.717,460.42l184.006,51.078l184.515-51.15L481.287,0.501H30.713z M395.754,109.646
		l-2.567,28.596l-1.128,12.681h-0.187H256h-0.197h-79.599l5.155,57.761h74.444H256h115.723h15.201l-1.377,15.146l-13.255,148.506
		l-0.849,9.523L256,413.854v0.012l-0.259,0.072l-115.547-32.078l-7.903-88.566h26.098h30.526l4.016,44.986l62.82,16.965l0.052-0.014
		v-0.006l62.916-16.977l6.542-73.158H256h-0.197H129.771l-13.863-155.444l-1.351-15.131h141.247H256h141.104L395.754,109.646z">
	</path>
</g>

	<g id='arrow-prev'>
	<path d="M16.6666 9.77137C16.6666 9.45496 16.4315 9.19346 16.1264 9.15208L16.0416 9.14637L5.05496 9.14687L9.02412 5.19393C9.26872 4.95038 9.26957 4.55465 9.02602 4.31005C8.80461 4.08768 8.45743 4.06676 8.21237 4.24778L8.14214 4.30815L3.10047 9.32815C3.06823 9.36025 3.04023 9.39499 3.01646 9.43169C3.00974 9.44273 3.00291 9.45403 2.99643 9.46555C2.99047 9.47543 2.98509 9.48569 2.98001 9.49607C2.97295 9.51116 2.96606 9.52675 2.9598 9.54266C2.95471 9.55492 2.95047 9.56685 2.94659 9.57888C2.94199 9.59379 2.93752 9.60968 2.93367 9.62581C2.93081 9.63708 2.92854 9.64792 2.92656 9.6588C2.92378 9.67499 2.92142 9.69175 2.91973 9.7087C2.91827 9.72164 2.9174 9.73445 2.91691 9.74727C2.91679 9.75505 2.91663 9.76319 2.91663 9.77137L2.91694 9.79558C2.91742 9.80785 2.91826 9.8201 2.91946 9.83233L2.91663 9.77137C2.91663 9.81081 2.92028 9.8494 2.92727 9.88681C2.92889 9.89575 2.93082 9.90492 2.93296 9.91406C2.9374 9.93287 2.94253 9.95099 2.94843 9.96875C2.95133 9.97758 2.95471 9.98701 2.95832 9.99637C2.96563 10.0152 2.97357 10.0331 2.9823 10.0506C2.98636 10.0588 2.9909 10.0674 2.99566 10.0759C3.00347 10.0898 3.01151 10.103 3.02002 10.1158C3.02602 10.1249 3.03267 10.1344 3.03961 10.1437L3.04502 10.1509C3.06186 10.1729 3.08013 10.1938 3.09969 10.2133L3.10044 10.2139L8.1421 15.2347C8.38668 15.4783 8.78241 15.4775 9.02598 15.2329C9.24741 15.0105 9.26686 14.6633 9.08481 14.419L9.02415 14.349L5.05663 10.3969L16.0416 10.3964C16.3868 10.3964 16.6666 10.1165 16.6666 9.77137Z" fill="white"/>
	</g>

	<g id='arrow-next'>
		<path d="M3.33337 9.77137C3.33337 9.45496 3.5685 9.19346 3.87357 9.15208L3.95837 9.14637L14.945 9.14687L10.9759 5.19393C10.7313 4.95038 10.7304 4.55465 10.974 4.31005C11.1954 4.08768 11.5426 4.06676 11.7876 4.24778L11.8579 4.30815L16.8995 9.32815C16.9318 9.36025 16.9598 9.39499 16.9835 9.43169C16.9903 9.44273 16.9971 9.45403 17.0036 9.46555C17.0095 9.47543 17.0149 9.48569 17.02 9.49607C17.027 9.51116 17.0339 9.52675 17.0402 9.54266C17.0453 9.55492 17.0495 9.56685 17.0534 9.57888C17.058 9.59379 17.0625 9.60968 17.0663 9.62581C17.0692 9.63708 17.0715 9.64792 17.0734 9.6588C17.0762 9.67499 17.0786 9.69175 17.0803 9.7087C17.0817 9.72164 17.0826 9.73445 17.0831 9.74727C17.0832 9.75505 17.0834 9.76319 17.0834 9.77137L17.0831 9.79558C17.0826 9.80785 17.0817 9.8201 17.0805 9.83233L17.0834 9.77137C17.0834 9.81081 17.0797 9.8494 17.0727 9.88681C17.0711 9.89575 17.0692 9.90492 17.067 9.91406C17.0626 9.93287 17.0575 9.95099 17.0516 9.96875C17.0487 9.97758 17.0453 9.98701 17.0417 9.99637C17.0344 10.0152 17.0264 10.0331 17.0177 10.0506C17.0136 10.0588 17.0091 10.0674 17.0043 10.0759C16.9965 10.0898 16.9885 10.103 16.98 10.1158C16.974 10.1249 16.9673 10.1344 16.9604 10.1437L16.955 10.1509C16.9381 10.1729 16.9199 10.1938 16.9003 10.2133L16.8996 10.2139L11.8579 15.2347C11.6133 15.4783 11.2176 15.4775 10.974 15.2329C10.7526 15.0105 10.7331 14.6633 10.9152 14.419L10.9758 14.349L14.9434 10.3969L3.95837 10.3964C3.6132 10.3964 3.33337 10.1165 3.33337 9.77137Z" fill="white"/>
	</g>

	<g id='quote'>
		<path d="M6.66662 23.2516H10.6666L13.3333 17.9182V9.91821H5.33329V17.9182H9.33329L6.66662 23.2516ZM20 23.2516H24L26.6666 17.9182V9.91821H18.6666V17.9182H22.6666L20 23.2516Z" fill="#CF0F26"/>
	</g>

	<g id='phone' fill='currentColor'>
		<path d="M11.5317 13.1875C15.5208 17.1754 16.4257 12.5618 18.9656 15.0999C21.4142 17.5478 22.8216 18.0383 19.7192 21.1398C19.3306 21.4521 16.8615 25.2093 8.18454 16.5348C-0.493539 7.85909 3.26152 5.38753 3.57391 4.99904C6.68381 1.88893 7.1658 3.30447 9.61443 5.75242C12.1543 8.29158 7.5426 9.1995 11.5317 13.1875Z" />
	</g>

	<g id='email' fill='currentColor'>
		<path d="M16.9394 3.71509C18.2804 3.71509 19.5704 4.24509 20.5194 5.19609C21.4694 6.14509 22.0004 7.42509 22.0004 8.76509V16.6651C22.0004 19.4551 19.7304 21.7151 16.9394 21.7151H7.06037C4.26937 21.7151 2.00037 19.4551 2.00037 16.6651V8.76509C2.00037 5.97509 4.25937 3.71509 7.06037 3.71509H16.9394ZM18.0704 8.91509C17.8604 8.90409 17.6604 8.97509 17.5094 9.11509L13.0004 12.7151C12.4204 13.1961 11.5894 13.1961 11.0004 12.7151L6.50037 9.11509C6.18937 8.88509 5.75937 8.91509 5.50037 9.18509C5.23037 9.45509 5.20037 9.88509 5.42937 10.1851L5.56037 10.3151L10.1104 13.8651C10.6704 14.3051 11.3494 14.5451 12.0604 14.5451C12.7694 14.5451 13.4604 14.3051 14.0194 13.8651L18.5304 10.2551L18.6104 10.1751C18.8494 9.88509 18.8494 9.46509 18.5994 9.17509C18.4604 9.02609 18.2694 8.93509 18.0704 8.91509Z" />
	</g>

	<g id='address' fill='currentColor'>
		<path d="M12 1.71509C7.0374 1.71509 3 5.64173 3 10.4682C3 16.0299 6.7107 19.3854 9.17175 21.6061C9.95475 22.3461 10.9816 22.7151 12.0063 22.7151C13.0287 22.7151 14.0489 22.3475 14.8206 21.6135C17.2812 19.3929 21 16.0356 21 10.4682C21 5.64173 16.9626 1.71509 12 1.71509ZM12 13.9694C10.015 13.9694 8.4 12.3987 8.4 10.4682C8.4 8.53769 10.015 6.96695 12 6.96695C13.985 6.96695 15.6 8.53769 15.6 10.4682C15.6 12.3987 13.985 13.9694 12 13.9694Z" />
	</g>


	<g id='arrow-up'>
		<path d="M10.2086 16.6465C9.89215 16.6465 9.63066 16.4114 9.58927 16.1064L9.58357 16.0215L9.58407 5.03488L5.63113 9.00404C5.38757 9.24864 4.99185 9.24949 4.74724 9.00594C4.52488 8.78453 4.50396 8.43735 4.68498 8.19229L4.74534 8.12206L9.76534 3.08039C9.79744 3.04815 9.83219 3.02015 9.86888 2.99638C9.87993 2.98966 9.89122 2.98283 9.90275 2.97635C9.91263 2.97039 9.92289 2.96501 9.93326 2.95993C9.94835 2.95287 9.96394 2.94598 9.97985 2.93972C9.99212 2.93463 10.004 2.93039 10.0161 2.92651C10.031 2.92191 10.0469 2.91744 10.063 2.91359C10.0743 2.91073 10.0851 2.90846 10.096 2.90648C10.1122 2.9037 10.1289 2.90134 10.1459 2.89965C10.1588 2.89819 10.1716 2.89732 10.1845 2.89683C10.1922 2.89671 10.2004 2.89655 10.2086 2.89655L10.2328 2.89686C10.245 2.89734 10.2573 2.89818 10.2695 2.89938L10.2086 2.89655C10.248 2.89655 10.2866 2.9002 10.324 2.90719C10.3329 2.90881 10.3421 2.91074 10.3513 2.91288C10.3701 2.91732 10.3882 2.92245 10.4059 2.92836C10.4148 2.93126 10.4242 2.93463 10.4336 2.93824C10.4524 2.94555 10.4703 2.95349 10.4878 2.96222C10.496 2.96628 10.5046 2.97082 10.5131 2.97558C10.527 2.98339 10.5401 2.99143 10.553 2.99994C10.5621 3.00595 10.5716 3.01259 10.5809 3.01953L10.5881 3.02494C10.6101 3.04178 10.631 3.06005 10.6505 3.07961L10.6511 3.08036L15.6719 8.12202C15.9155 8.3666 15.9147 8.76233 15.6701 9.0059C15.4477 9.22733 15.1005 9.24678 14.8562 9.06473L14.7862 9.00407L10.8341 5.03655L10.8336 16.0215C10.8336 16.3667 10.5537 16.6465 10.2086 16.6465Z" fill="white"/>
	</g>
</svg>
